<svg width="48" height="48" viewBox="0 0 48 48" fill="none" xmlns="http://www.w3.org/2000/svg">
<circle cx="24" cy="24" r="24" fill="white"/>
<path d="M10.432 25.52L9.232 25.544C9.072 25.544 8.992 25.488 8.992 25.376C8.992 25.264 9.056 25.144 9.184 25.016C9.328 24.872 9.48 24.8 9.64 24.8H10.84C12.456 22.176 14.424 19.584 16.744 17.024C16.648 16.896 16.6 16.76 16.6 16.616C16.6 16.456 16.688 16.296 16.864 16.136C17.04 15.976 17.304 15.896 17.656 15.896C18.024 15.896 18.208 16.064 18.208 16.4C18.208 16.512 18.184 16.624 18.136 16.736C18.424 17.472 18.768 18.68 19.168 20.36C19.568 22.024 19.856 23.496 20.032 24.776C20.56 24.792 20.824 24.88 20.824 25.04L20.104 25.424C20.104 25.504 20.16 25.936 20.272 26.72C20.656 29.168 20.848 30.744 20.848 31.448C20.848 31.608 20.728 31.76 20.488 31.904C20.264 32.032 20.048 32.096 19.84 32.096C19.648 32.096 19.552 32.032 19.552 31.904V31.616C19.552 31.008 19.488 29.952 19.36 28.448C19.232 26.928 19.136 25.928 19.072 25.448C14.176 25.496 11.616 25.52 11.392 25.52C9.968 28.128 9.136 30.256 8.896 31.904C8.88 32.08 8.728 32.168 8.44 32.168C8.152 32.168 8 32.144 7.984 32.096C7.968 32.064 7.96 32.032 7.96 32L8.008 31.616C8.328 29.824 9.136 27.792 10.432 25.52ZM19 24.8C18.84 23.52 18.568 22.152 18.184 20.696C17.816 19.24 17.52 18.168 17.296 17.48C16.32 18.52 15.296 19.736 14.224 21.128C13.168 22.504 12.336 23.744 11.728 24.848L19 24.8ZM34.1899 24.008L34.7419 23.984C34.8379 23.984 34.8859 24.04 34.8859 24.152C34.8859 24.248 34.8139 24.368 34.6699 24.512C34.5419 24.64 34.3499 24.728 34.0939 24.776C33.7739 27.32 33.6139 29.352 33.6139 30.872C33.6139 30.872 33.6699 31.08 33.7819 31.496C33.7819 31.704 33.7019 31.872 33.5419 32C33.3979 32.128 33.2299 32.192 33.0379 32.192C32.6539 32.192 32.4619 32.016 32.4619 31.664C32.7179 28.864 32.9419 26.576 33.1339 24.8H24.5179C24.1659 27.152 23.9899 29.104 23.9899 30.656C23.9899 30.832 24.0139 31.008 24.0619 31.184C24.1259 31.344 24.1579 31.496 24.1579 31.64C24.1579 31.768 24.0859 31.888 23.9419 32C23.8139 32.128 23.6699 32.192 23.5099 32.192C23.1739 32.192 23.0059 32.032 23.0059 31.712C23.0059 30.304 23.1979 28 23.5819 24.8H23.3419C23.1819 24.8 23.1019 24.744 23.1019 24.632C23.1019 24.52 23.1579 24.4 23.2699 24.272C23.3819 24.144 23.5099 24.072 23.6539 24.056C23.8779 22.248 24.0779 20.92 24.2539 20.072C24.4299 19.208 24.5419 18.632 24.5899 18.344C24.6539 18.04 24.7019 17.832 24.7339 17.72C24.7659 17.608 24.8219 17.432 24.9019 17.192C24.9979 16.952 25.0939 16.784 25.1899 16.688C25.3019 16.576 25.4459 16.472 25.6219 16.376C25.8139 16.28 26.0299 16.232 26.2699 16.232C26.5099 16.232 26.6299 16.312 26.6299 16.472V16.52C25.8299 18.344 25.1579 20.856 24.6139 24.056C26.9659 24.056 29.8379 24.04 33.2299 24.008C33.4539 22.12 33.6859 20.472 33.9259 19.064V18.344C33.9259 17.752 34.0699 17.256 34.3579 16.856C34.6619 16.44 35.1179 16.232 35.7259 16.232C35.9659 16.232 36.0859 16.312 36.0859 16.472V16.52C35.2539 18.408 34.6219 20.904 34.1899 24.008Z" fill="#3F4E59"/>
</svg>
